<?xml version="1.0" encoding="utf-8"?>
<!-- Generator: Adobe Illustrator 13.0.0, SVG Export Plug-In . SVG Version: 6.00 Build 14948)  -->
<!DOCTYPE svg PUBLIC "-//W3C//DTD SVG 1.1//EN" "http://www.w3.org/Graphics/SVG/1.1/DTD/svg11.dtd">
<svg version="1.1" id="Layer_1" xmlns="http://www.w3.org/2000/svg" xmlns:xlink="http://www.w3.org/1999/xlink" x="0px" y="0px"
	 width="720px" height="439.824px" viewBox="0 0 720 439.824" enable-background="new 0 0 720 439.824" xml:space="preserve">
<path fill="#004785" d="M320.824,82.555c9.318-24.73,19.311-52.818,23.25-64.457c3.412-10.219,1.07-12.549-6.986-13.443
	l-5.379-0.537V0h39.236v4.117c-11.998,1.266-13.617,2.51-20.238,18.277c-2.332,5.555-12.391,34.846-25.828,71.219L320.824,82.555z"
	/>
<path fill="#004785" d="M406.396,84.838c-6.262-5.514-14.166-8.756-20.23-11.42c-13.613-6.084-23.107-12-23.107-25.258
	c0-10.572,6.625-19.891,19.344-19.891c16.312,0,21.322,12.541,24.369,23.113l4.475-0.537c-1.432-10.75-2.512-17.914-3.227-24.191
	c-1.971-0.355-4.477-1.248-6.803-1.963c-3.77-1.262-9.865-2.332-14.875-2.332c-18.678,0-30.973,9.658-35.225,22.545l-0.057,0.01
	c-3.943,11.643-17.354,47.342-26.672,72.062c-13.08-33.504-35.037-90.33-39.699-103.592c-1.971-5.551-0.889-7.342,5.732-8.238
	l5.732-0.713V0.303h-44.338v4.131c10.75,1.072,13.258,2.322,18.992,17.191c7.705,19.889,37.189,96.113,49.371,128.178
	c0,0,19.812-52.537,31.598-83.561c6.213,13.584,22.973,19.545,27.756,21.865c3.072,1.484,6.285,2.977,9.359,4.645
	c10.258,5.998,23.584,22.275,10.057,41.24c-6.955,9.766-21.564,13.182-32.908,7.547c-17.652-8.779-18.523-22.08-13.992-35.459
	l7.406-19.068c-3.355-2.385-5.27-4.953-5.27-4.953l-29.893,76.416l3.695,9.326l13.889-35.625c0.49,0.5,0.992,0.996,1.482,1.477
	c3.457,3.529,9.098,9.113,14.277,12.717c22.568,15.713,50.502,6.338,59.523-11.625C430.367,108.424,413.949,90.562,406.396,84.838z"
	/>
<path fill="#005941" d="M31.129,233.445c-6.758-17.807-16.307-42.371-20.586-53.414c-3.182-8.256-4.574-8.953-10.543-9.549v-2.285
	h24.172v2.285l-3.182,0.393c-3.684,0.504-4.277,1.5-3.184,4.582c2.586,7.359,10.246,26.959,17.508,45.553
	c5.172-13.727,13.729-36.303,15.912-42.764c1.891-5.68,0.891-6.967-3.584-7.469l-2.979-0.295v-2.285h21.781v2.285
	c-6.664,0.697-7.557,1.396-11.238,10.145c-1.297,3.086-13.631,32.627-21.084,52.818H31.129z"/>
<path fill="#005941" d="M65.17,204.105c0.797-7.365,5.969-12.236,10.738-12.236c5.18,0,8.363,4.771,8.363,8.754
	c0,2.686-0.406,3.182-1.795,3.182L65.17,204.105z M91.029,222.902c-3.98,3.578-6.953,4.775-10.236,4.775
	c-7.168,0-16.512-5.172-16.223-19.99c12.338-0.404,24.67-1.402,26.064-1.693c1.793-0.404,2.094-0.598,2.094-3.678
	c0-6.672-6.473-13.828-14.234-13.828c-11.932,0-21.281,11.242-21.281,24.564c0,11.543,7.561,20.996,20.201,20.996
	c2.678,0,9.543-1.996,15.014-9.752L91.029,222.902z"/>
<path fill="#005941" d="M110.424,219.721c0,7.758,3.674,9.148,6.365,9.148c1.785,0,3.979-0.795,5.871-1.889l0.99,2.193l-8.15,4.074
	c-1,0.502-2.297,0.801-2.992,0.801c-6.359,0-9.846-4.086-9.846-12.033v-28.557h-7.264L95,192.463l2.889-2.781h4.773v-6.264
	l6.467-6.568h1.295v12.832h11.535c0.799,1.092,0.496,2.684-0.695,3.777h-10.84V219.721z"/>
<path fill="#005941" d="M133.121,204.105c0.797-7.365,5.973-12.236,10.744-12.236c5.178,0,8.357,4.771,8.357,8.754
	c0,2.686-0.402,3.182-1.793,3.182L133.121,204.105z M158.979,222.902c-3.971,3.578-6.963,4.775-10.236,4.775
	c-7.16,0-16.516-5.172-16.213-19.99c12.328-0.404,24.658-1.402,26.061-1.693c1.785-0.404,2.084-0.598,2.084-3.678
	c0-6.672-6.461-13.828-14.223-13.828c-11.938,0-21.289,11.242-21.289,24.564c0,11.543,7.561,20.996,20.193,20.996
	c2.682,0,9.551-1.996,15.02-9.752L158.979,222.902z"/>
<path fill="#005941" d="M178.785,223.895c0,5.572,0.5,6.068,8.258,6.668v2.289h-22.885v-2.289c6.373-0.6,6.867-1.096,6.867-6.668
	V200.92c0-5.973-0.199-6.068-6.758-6.865v-1.785c4.674-1,9.543-2.193,14.518-3.98v10.244h0.197
	c2.289-3.881,7.162-10.045,11.936-10.045c2.994,0,5.371,2.689,5.371,4.674c0,1.689-1.088,3.982-3.178,4.875
	c-1.098,0.496-1.988,0.297-2.484-0.1c-1.4-1.197-2.494-2.094-4.279-2.094c-2.393,0-4.973,1.895-7.562,7.064V223.895z"/>
<path fill="#005941" d="M214.396,223.895c0,5.572,0.496,6.068,7.158,6.668v2.289h-21.986v-2.289c6.566-0.6,7.072-1.096,7.072-6.668
	V200.92c0-5.973-0.207-6.068-6.775-6.865v-1.785c4.582-1,9.457-2.193,14.531-3.98V223.895z M215.689,170.482
	c0,2.986-2.291,5.371-5.18,5.371c-2.775,0-5.168-2.385-5.168-5.371c0-3.086,2.393-5.467,5.168-5.467
	C213.398,165.016,215.689,167.396,215.689,170.482z"/>
<path fill="#005941" d="M238.863,195.74c1.887-1.385,4.076-2.777,6.662-4.371c2.979-1.789,5.471-2.881,8.555-2.881
	c8.156,0,12.633,5.367,12.633,13.227v22.18c0,5.572,0.496,6.068,6.268,6.668v2.289h-21.088v-2.289
	c6.566-0.6,7.057-1.096,7.057-6.668v-19.098c0-5.768-1.885-10.742-9.246-10.742c-3.881,0-7.85,2.086-10.84,4.684v25.156
	c0,5.572,0.492,6.068,6.361,6.668v2.289H223.74v-2.289c6.867-0.6,7.363-1.096,7.363-6.668V200.92c0-5.973-0.205-6.068-6.756-6.865
	v-1.785c4.566-1,9.441-2.193,14.516-3.98V195.74z"/>
<path fill="#005941" d="M300.533,224.695c-2.689,2.09-6.369,3.875-8.65,3.875c-2.988,0-6.566-2.486-6.566-7.756
	c0-3.588,1.688-5.566,5.172-7.461c1.881-0.996,7.852-3.678,10.045-4.582V224.695z M316.049,229.174l-0.896-2.193
	c-1.789,0.896-3.477,1.293-4.283,1.293c-1.479,0-2.785-1.688-2.785-5.371v-22.379c0-3.578-0.488-7.064-3.773-9.65
	c-1.99-1.488-5.07-2.385-7.857-2.385c-7.062,1.297-12.93,5.07-15.316,6.863c-2.189,1.594-3.391,2.982-3.391,4.279
	c0,1.785,2.693,3.381,4.281,3.381c1.1,0,1.992-0.695,2.291-1.9c1.094-4.166,3.182-8.346,8.051-8.346c5.27,0,8.164,3.277,8.164,9.449
	v3.375c-2.986,2.098-11.143,4.979-16.018,6.963c-5.172,2.094-7.557,5.48-7.557,10.049c0,5.473,4.674,11.447,11.936,11.447
	c2.09,0,7.461-3.789,11.639-6.467c0.592,2.484,2.08,5.863,5.467,6.467L316.049,229.174z"/>
<path fill="#005941" d="M332.557,223.895c0,5.572,0.494,6.068,8.258,6.668v2.289h-22.877v-2.289c6.363-0.6,6.863-1.096,6.863-6.668
	V200.92c0-5.973-0.203-6.068-6.764-6.865v-1.785c4.676-1,9.547-2.193,14.52-3.98v10.244h0.201
	c2.293-3.881,7.16-10.045,11.939-10.045c2.986,0,5.365,2.689,5.365,4.674c0,1.689-1.092,3.982-3.176,4.875
	c-1.098,0.496-1.99,0.297-2.494-0.1c-1.381-1.197-2.486-2.094-4.279-2.094c-2.381,0-4.967,1.895-7.557,7.064V223.895z"/>
<path fill="#005941" d="M371.73,191.971l-2.977,0.395c-2.195,0.301-2.09,1.887-1.098,4.68l8.652,24.469
	c2.484-5.57,8.561-21.287,9.75-24.773c1.092-3.082,0.9-3.975-1.389-4.277l-3.688-0.492v-2.289h17.506v2.289
	c-5.371,0.992-5.463,1.393-8.553,7.256c-2.686,4.975-6.268,13.131-12.627,28.154c-6.57,15.51-9.156,21.781-10.645,27.055
	c-0.496,1.982-1.994,2.486-3.09,2.486c-2.486,0-4.867-2.189-4.971-4.578c0.104-1.393,1.195-2.281,2.785-3.486
	c2.789-1.984,5.07-4.967,6.859-8.652c1.4-2.982,2.689-6.064,3.094-7.256c0.289-0.896,0.289-2.09-0.107-3.283
	c-3.379-10.541-8.057-22.684-10.939-30.34c-2.289-6.164-2.588-6.66-8.752-7.355v-2.289h20.188V191.971z"/>
<path fill="#005941" d="M417.584,215.348c1.596,4.67,6.668,15.711,17.209,15.711c7.561,0,12.34-5.078,12.34-12.834
	c0-8.453-6.477-11.939-12.832-15.016c-3.287-1.59-16.717-6.264-16.717-18.203c0-9.85,7.469-18.303,20.494-18.303
	c2.787,0,6.164,0.602,8.262,1.293c1.289,0.4,2.682,0.889,3.781,1.09c0.393,3.48,0.988,7.459,1.789,13.432l-2.488,0.299
	c-1.699-5.871-4.479-12.834-13.533-12.834c-7.064,0-10.736,5.174-10.736,11.041c0,7.365,5.266,10.646,12.83,14.029
	c6.564,2.885,17.002,6.967,17.002,19.303c0,11.533-9.445,19.98-22.076,19.98c-3.582,0-6.961-0.691-9.453-1.484
	c-2.486-0.799-4.275-1.6-5.463-2.088c-0.801-2.586-1.902-9.654-2.887-15.025L417.584,215.348z"/>
<path fill="#005941" d="M468.506,204.105c0.805-7.365,5.973-12.236,10.746-12.236c5.176,0,8.365,4.771,8.365,8.754
	c0,2.686-0.412,3.182-1.793,3.182L468.506,204.105z M494.373,222.902c-3.979,3.578-6.959,4.775-10.242,4.775
	c-7.168,0-16.512-5.172-16.213-19.99c12.332-0.404,24.67-1.402,26.055-1.693c1.793-0.404,2.09-0.598,2.09-3.678
	c0-6.672-6.469-13.828-14.221-13.828c-11.938,0-21.287,11.242-21.287,24.564c0,11.543,7.561,20.996,20.203,20.996
	c2.67,0,9.541-1.996,15.008-9.752L494.373,222.902z"/>
<path fill="#005941" d="M514.176,223.895c0,5.572,0.496,6.068,8.258,6.668v2.289h-22.877v-2.289c6.359-0.6,6.863-1.096,6.863-6.668
	V200.92c0-5.973-0.195-6.068-6.764-6.865v-1.785c4.672-1,9.549-2.193,14.52-3.98v10.244h0.197
	c2.289-3.881,7.158-10.045,11.943-10.045c2.977,0,5.369,2.689,5.369,4.674c0,1.689-1.092,3.982-3.189,4.875
	c-1.088,0.496-1.988,0.297-2.48-0.1c-1.396-1.197-2.486-2.094-4.275-2.094c-2.393,0-4.979,1.895-7.564,7.064V223.895z"/>
<path fill="#005941" d="M554.863,233.545l-14.031-35.211c-2.09-5.371-2.289-5.668-7.961-6.363v-2.289h19.799v2.289l-3.383,0.395
	c-1.293,0.197-1.889,0.896-0.799,3.879c3.189,8.256,6.672,18.006,9.953,25.861c2.984-8.055,6.271-17.012,9.148-25.365
	c0.992-2.984,0.596-3.975-0.695-4.178l-4.08-0.592v-2.289h16.914v2.289c-5.471,0.592-5.57,0.992-8.061,6.463
	c-4.078,8.957-9.053,20.691-14.324,35.111H554.863z"/>
<path fill="#005941" d="M595.729,223.895c0,5.572,0.504,6.068,7.156,6.668v2.289h-21.973v-2.289c6.561-0.6,7.057-1.096,7.057-6.668
	V200.92c0-5.973-0.191-6.068-6.76-6.865v-1.785c4.574-1,9.441-2.193,14.52-3.98V223.895z M597.018,170.482
	c0,2.986-2.285,5.371-5.172,5.371c-2.777,0-5.166-2.385-5.166-5.371c0-3.086,2.389-5.467,5.166-5.467
	C594.732,165.016,597.018,167.396,597.018,170.482z"/>
<path fill="#005941" d="M642.678,223.307c-4.086,6.16-10.342,10.742-16.021,10.742c-12.625,0-20.578-10.041-20.578-20.996
	c0-7.463,3.574-14.115,9.053-18.602c5.959-4.871,12.828-5.963,16.205-5.963c2.281,0,6.562,0.896,8.758,2.689
	c0.695,0.596,1,1.188,1,2.186c0,2.193-1.994,4.375-3.289,4.375c-0.402,0-0.801-0.105-1.494-0.693
	c-3.877-3.486-7.156-4.279-10.346-4.279c-4.875,0-11.934,4.379-11.934,15.814c0,15.02,10.65,19.002,15.512,19.002
	c4.387,0,6.562-0.996,11.842-5.566L642.678,223.307z"/>
<path fill="#005941" d="M652.424,204.105c0.801-7.365,5.975-12.236,10.738-12.236c5.174,0,8.359,4.771,8.359,8.754
	c0,2.686-0.4,3.182-1.787,3.182L652.424,204.105z M678.281,222.902c-3.975,3.578-6.963,4.775-10.24,4.775
	c-7.16,0-16.518-5.172-16.213-19.99c12.334-0.404,24.674-1.402,26.049-1.693c1.801-0.404,2.105-0.598,2.105-3.678
	c0-6.672-6.471-13.828-14.232-13.828c-11.938,0-21.273,11.242-21.273,24.564c0,11.543,7.551,20.996,20.186,20.996
	c2.678,0,9.545-1.996,15.016-9.752L678.281,222.902z"/>
<path fill="#005941" d="M686.438,218.93c1.607,5.766,6.072,12.129,11.939,12.129c3.582,0,7.061-2.488,7.061-7.355
	c0-4.082-2.287-6.973-7.758-9.348c-6.459-2.891-11.93-6.271-11.93-12.832c0-7.168,6.164-13.035,14.816-13.035
	c3.576,0,6.363,0.797,8.361,1.689c0.992,2.285,1.979,7.859,2.184,9.553l-2.381,0.6c-2.99-6.574-6.18-8.855-9.953-8.855
	c-4.482,0-6.564,3.473-6.564,6.76c0,4.082,4.275,6.859,8.654,8.652c7.26,2.984,12.043,6.867,12.043,13.527
	c0,9.148-8.467,13.635-16.021,13.635c-5.072,0-9.646-2.092-11.535-3.689c-0.605-1.49-1.201-6.961-1.201-10.834L686.438,218.93z"/>
<polygon fill="#004785" points="1.268,130.039 270.783,130.039 272.936,135.014 1.268,135.014 "/>
<polygon fill="#004785" points="443.506,130.039 713.023,130.039 715.186,135.014 443.506,135.014 "/>
<rect x="8.127" y="427.508" fill="#004785" width="711.873" height="12.316"/>
<path fill="#004785" d="M117.359,306.596c1.438-2.184,2.312-7.137,2.037-9.922c-1.141,1.24-1.781,3.105-2.885,4.461
	c0.418-1.59,0.416-3.1,0.441-4.836c-1.271,2.398-3.057,8.227-6.014,9.07c-1.525,0.436-3.492,0.021-5.133,0.453
	c-2.338,0.617-4.576,1.379-6.896,2.645c-1.771,0.967-2.664,2.459-4.348,3.527c-1.486,0.951-2.545,1.439-3.732,2.893
	c-2.207,2.699-5.604,7.266-8.697,8.768c-1.17,0.57-2.512,0.473-3.74,0.926c-1.406,0.523-2.545,1.488-3.973,1.928
	c0.418-0.016,1.891-0.018,2.695,0.031c0.057,0.201,0.125,0.365,0.211,0.527c-1.746,0.83-3.258-0.275-4.934,0.871
	c-1.66,1.135-2.332,2.857-3.266,4.365c-1.811,2.92-4.219,5.465-7.355,6.793c-1.393,0.588-2.684,1.145-3.857,2.168
	c-1.053,0.928-1.625,2.434-2.785,3.217c-1.562,1.049-3.586,0.379-5.57,1.096c-1.633,0.592-3.27,1.707-4.689,2.742
	c-2.24,1.607-6.244,6.881-8.99,6.678c0.051,0.025,0.1,0.061,0.145,0.096c-3.803,2.432-9.648,5.631-14.236,3.82
	c1.041,2.111,9.58,1.48,11.66,1.176c3.842-0.553,7.17-3.857,10.158-6.016c3.422-2.467,6.131-5.98,10.377-6.598
	c4.498-0.645,6.594-2.912,10.076-5.689c3.789-3.037,7.332-5.387,10.549-9.275c1.512-1.836,3.664-1.979,5.078-3.516
	c0.57-0.602,0.416-1.672,0.766-2.09c0.59-0.688,1.273-0.604,2.08-1.07c3.705-2.18,7.191-5.158,10.379-8.051
	c2.658-2.398,6.076-6.596,9.572-7.41c1.643-0.377,2.25,0.049,3.893-0.916c1.713-0.99,1.932-1.559,3.932-1.154
	c1.551,0.318,1.965,0.91,3.475-0.297c1.123-0.9,1.592-2.594,2.709-3.459c0.086,1.432-1.117,2.945-0.375,4.344
	c0.666,1.262,2.254,1.305,3.529,1.902c2.789,1.309,4.969,2.152,7.068,4.426c-0.475-2.143-1.996-3.061-3.389-4.676
	c-1.721-1.98-3.023-3.076-5.545-3.947"/>
<path fill="#004785" d="M119.852,307.637c1.367,0.936,3.432,1.27,5.131,1.445c-0.986,0.131-2.473,0.113-3.494-0.127
	c0.693,2.451,4.312,1.938,5.328,3.883c-2.508-0.021-5.807-2.465-6.758-4.783"/>
<path fill="#004785" d="M126.898,315.514c1.748,2.504,2.387,5.742,4.395,8.244c2.061,2.564,4.146,5.006,5.963,7.76
	c1.84,2.812,3.834,5.289,5.857,7.984c1.191,1.578,0.969,2.531,0.781,4.189c-0.186,1.637,0.105,3.699-0.676,5.145
	c-0.887,1.646-2.119,1.412-3.473,2.117c-1.35,0.703-2.096,2.014-3.938,2.092c-1.494,0.041-3.57-0.627-4.4-1.836
	c-0.438-0.627,0.076-1.471-0.516-2.125c-0.426-0.475-1.674-0.496-2.285-0.875c-1.502-0.93-2.627-2.576-4.25-3.412
	c-1.492-0.787-3.119-1.404-4.773-1.885c-3.502-1.01-6.355-2.002-9.318-4.543c-2.01-1.725-3.174-3.904-3.484-6.406
	c2.145,3.037,3.295,4.875,6.391,6.816c2.66,1.666,5.514,2.441,8.545,3.42c3.076,1.002,6.207,2.848,8.953,4.766
	c1.359,0.941,1.623,1.963,2.807,3.004c1.836,1.637,2.111,0.564,3.828-0.006c3.17-1.047,5.301-1.918,5.15-5.848
	c-0.15-3.869-3.416-4.406-5.189-7.256c-1.727-2.773-2.611-5.283-4.771-7.66c-1.898-2.098-3.338-5.023-4.137-7.682
	c-0.689-2.326-1.4-6.816-3.656-8.105c0.756,0.893,1.438,1.828,2.4,2.516"/>
<path fill="#004785" d="M111.146,338.312c-5.859,3.033-6.625,12.74-8.707,18.451c-3.027,8.303-8.559,15.99-13.318,23.377
	c-0.848,1.309-2.082,3.154-3.449,3.898c3.199-1.992,5.588-8.617,6.873-11.982c1.469-3.826,3.768-7.83,5.748-11.352
	c2.156-3.852,2.646-7.537,4.197-11.629c1.025-2.711,2.496-8.475,4.961-10.094c1.125-0.74,2.803-0.461,4.104-0.461"/>
<path fill="#004785" d="M90.004,379.143c-4.043,6.672-2.482,13.838-4.623,21.158c-1.014,3.52-1.592,6.775-4.041,9.75
	c-2.256,2.736-5.125,4.73-6.273,8.203c1.662-7.387,7.006-13.078,8.922-20.383c0.934-3.564,0.637-7.451,1.465-11.055
	c0.783-3.4,2.414-4.988,4.34-7.674"/>
<path fill="#004785" d="M54.35,393.035c0,4.467-0.367,8.967,0.668,13.318c1.082,4.576,3.432,8.545,5.146,12.732
	c0.07-5.42-2.846-9.799-3.535-15.064c-0.35-2.693,0.332-5.449,0-8.1c-0.234-1.912-1.58-3.721-2.066-5.711
	c-0.904,1.814-0.219,3.4-0.424,5.307"/>
<path fill="#004785" d="M21.391,410.449c4.592,4.441,14.934,2.238,20.316,1.906c4.525-0.27,12.223,3.861,15.674-0.896
	c-2.512,0.992-6.268-1.018-8.791-1.592c-3.258-0.73-6.307-0.711-9.578-0.049c-3.57,0.715-6.953,0.1-10.574-0.357
	c-1.773-0.23-3.445-0.256-5.021-1.029c-1.086-0.541-1.803-1.377-3.033-1.693c0.174,1.422,2.037,4.844,3.498,5.365"/>
<path fill="#004785" d="M196.895,386.18c-0.73-4.586-5.652-9.316-10.133-10.035c-1.648-0.262-3.781-0.057-5.102-1.303
	c-0.531-0.512-0.789-1.27-1.117-1.893c-0.779-1.488-1.664-2.973-2.715-4.295c-1.326-1.664-3.104-2.9-5.008-3.719
	c1.295,1.219,2.771,2.098,3.881,3.553c1.287,1.693,2.242,3.611,3.098,5.553c0.926,2.098,1.664,2.727,3.9,3.184
	c2.186,0.447,4.367,1.082,6.301,2.152c3.125,1.734,5.117,4.57,6.139,7.965c0.506,1.678,1.291,3.904,1.49,5.795
	c0.211,1.984,0.223,3.865,0.785,5.814c0.199,0.688,0.459,1.514,0.836,2.127c0.014-1.195-0.432-2.344-0.432-3.59
	c-0.004-1.471,0.521-2.959,0.402-4.375c-0.213-2.514-1.879-5.086-2.428-7.467"/>
<path fill="#004785" d="M173.633,369.846c2.691-1.453-2.482-6.016-3.836-6.715c-1.828-0.945-1.711,0.535-1.26,1.893
	c0.451,1.342,0.557,2.682-0.035,4.035c1.885-1.311,0.857-3.664,0.535-5.359c1.861,0.506,5.568,4.424,4.279,6.578"/>
<path fill="#004785" d="M168.408,364.729c-0.65-0.902-3.061-2.039-4.145-1.48c0.193,0.922,1.27,2.246,1.158,3.189
	c-0.146,1.211-1.785,1.455-2.27,2.516c-0.516,1.133,0.014,2.691-0.432,3.883c-0.373,0.998-1.316,1.779-1.662,2.75
	c1.154,1.006,0.887,2.992,2.781,3.527c0.926,0.252,1.457-0.68,2.246-0.113c0.801,0.582,0.473,1.758,0.092,2.467
	c1.031-0.521,1.639-1.062,1.191-2.225c-0.428-1.109-1.018-1.141-2.059-1.174c-0.812-0.023-1.934,0.104-2.531-0.559
	c-0.955-1.066,0.293-1.074,0.734-1.797c-0.553-0.432-1.291,0.375-1.701-0.396c1.277-0.512,1.986-1.127,2.002-2.48
	c0.01-1.105-0.457-2.381,0.107-3.309c0.602-0.992,2.268-1.113,2.594-2.324c0.211-0.795-0.699-1.809-0.76-2.676
	c0.889-0.371,1.926,0.635,2.971,0.521"/>
<path fill="#004785" d="M166.164,381.48c-0.203,1.176-1.275,2.084-1.412,3.289c-0.066,0.615,0.205,0.898,0.264,1.508
	c0.053,0.574-0.115,0.857-0.33,1.475c0.576,0.24,0.129,2.129,0.303,2.803c0.223,0.84,0.459,1.654,0.646,2.559
	c0.162,0.803,0.58,1.525,1.092,2.213c0.656,0.891,1.062,1.766,1.658,2.707c1.031,1.615,2.334,3.246,2.984,5.027
	c0.656,1.797,0.16,3.668,0.479,5.504c0.115,0.68,0.635,1.211,0.207,1.926c0.678-1.367,0.293-3.393,0.492-4.893
	c0.182-1.402,0.383-2.916-0.404-4.158c-1.4-2.232-2.998-4.1-4.242-6.439c-1.129-2.125-1.441-4.555-1.818-6.93
	c-0.23-1.463-0.506-2.02-0.129-3.49c0.238-0.945,0.709-2.016,0.871-2.973c0.037-0.191,0.246-0.51,0.285-0.758
	c-0.707,0.27-0.998,1.053-1.477,1.592"/>
<path fill="#004785" d="M174.381,405.062c0.713-3.621,4.633-7.508,8.104-8.428c2.686-0.723,5.729,0.471,7.67,2.316
	c1.842,1.75,2.17,3.803,1.918,6.24c-0.133,1.281-0.25,2.592-1.256,3.422c-0.711,0.588-1.648,0.896-2.336,1.523
	c0.863-0.762,1.67-2.594,2.121-3.688c0.646-1.561,0.748-2.328-0.105-3.732c-0.705-1.154-0.779-2.111-2.027-2.777
	c-0.992-0.531-1.992-0.963-3.121-1.197c-1.533-0.312-2.367-0.504-3.6,0.475c-1.092,0.871-1.988,1.906-3.092,2.771
	c-2.031,1.602-4.27,2.674-4.385,5.512c-0.025,0.717,0.029,1.631-0.236,2.232c-0.617-2.195-0.037-3.422,0.559-5.42"/>
<path fill="#004785" d="M197.107,409.967c0.555,3.277-5.236,4.762-7.547,5.209c-1.32,0.254-2.623,0.436-3.949,0.553
	c-1.637,0.162-3.336-0.229-4.959,0c-1.482,0.211-2.457,1.055-4.02,0.967c-1.582-0.09-2.846-0.486-4.463-0.344
	c-3.307,0.291-6.07,0.34-9.176-0.914c-1.43-0.574-3.141-0.67-2.359-2.566c0.924,0.025,1.799-0.393,2.674-0.58
	c1.072-0.221,1.818-0.336,0.959-1.471c0.734-0.201,1.549-0.078,2.314-0.117c-0.088-0.17-0.068-0.523-0.193-0.715
	c0.775-0.061,1.379-0.17,2.111,0.109c0.189,1.549-1.893,2.314-3.064,2.562c-0.027,1.219-2.189,0.631-0.348,1.715
	c1.26,0.74,2.801,0.705,4.197,0.963c2.393,0.439,4.457,0.074,6.695-0.539c4.912-1.346,10.479,1.52,15.316-0.471
	c1.268-0.531,2.697-1.096,3.793-1.928c1.018-0.783,1.354-2.199,2.234-2.959"/>
<path fill="#004785" d="M127.635,370.377c0,0,3.568,0.447,3.584,3.082c0.016,2.637,0.201,34.877,0.178,36.309
	c-0.021,1.432-0.887,5.775,4.225,6.115c5.113,0.334,4.162-6.76,4.162-6.76s-0.396,4.699-2.658,4.797
	c-2.264,0.107-2.457,0.15-2.828-0.971c-0.504-1.545-1.459-1.24-1.309-2.764c0.1-1.09-0.182-7.031-0.186-9.033
	c-0.008-1.998-0.014-10.07-0.178-11.062c-0.162-0.996-0.871-3.4-0.732-6.012c0.141-2.598,0.023-10.533,0.023-10.533
	s0.039-1.51-0.65-2.318C130.578,370.426,127.635,370.377,127.635,370.377z"/>
<path fill="#004785" d="M142.133,370.207c0,0-3.961,0.188-3.676,3.047c0.768,7.873,0.119,38.928,1.334,33.793
	c0.057-0.234-0.172-26.564-0.207-27.773c-0.031-1.205-0.369-4.514,0.037-6.221C139.943,371.684,142.133,370.207,142.133,370.207z"/>
<path fill="#004785" d="M135.018,373.602c0.521-0.457,1.193-0.645,1.826-0.561c-0.156,2.473-0.129,5.23,0.291,7.639
	c-1.27-0.488-0.889-2.674-0.867-3.777c0.027-1.607-0.332-1.846-0.998-3.135"/>
<path fill="#004785" d="M134.49,389.58c-0.285,1.375,0.068,2.908,0,4.309c-0.064,1.41-0.375,2.807-0.479,4.217
	c-0.154,2.125-0.148,4.357,0.051,6.512c0.133,1.414,0.203,3.5,0.828,4.818c0.682,1.432,2.893,2.43,2.965,0.088
	c-2.307,1.814-2.039-5.275-2.127-6.176c-0.475-4.684,0.182-9.363-0.801-13.994"/>
<path fill="#004785" d="M146.994,385.246c1.152-0.375,2.232-0.328,3.449-0.266c0.676,0.033,1.301,0,1.922,0.191
	c0.895,0.291,0.736,0.893,0.67,1.775c-0.775,0.213-2.5,0.109-2.789,0.213c0.145-0.057,1.758-0.475,1.848-0.613
	c-0.039,0.053-0.016-0.766,0-0.75c-0.244-0.4-0.91-0.234-1.385-0.264c-1.24-0.062-2.447-0.049-3.746,0.094"/>
<path fill="#004785" d="M146.963,385.523c-0.092,0.309,0.045,0.844-0.055,1.215c1.414,0.539,3.598,0.639,5.096,0.146
	c-0.711,0.076-1.646-0.004-2.375-0.078c-0.605-0.057-1.549-0.047-2.107-0.27c-0.117-0.357-0.07-0.756-0.092-1.141
	c-0.16-0.047-0.299,0-0.398,0.057"/>
<path fill="#004785" d="M152.021,386.816c0,0.531-0.168,1.205-0.053,1.701c0.137,0.588,1.096,1.07,1.559,1.449
	c1.088,0.902,2.211,0.641,2.6,2.115c0.41,1.572,0.066,4.693,0.066,6.328c0,2.096,0.066,4.236,0.066,6.32
	c0,2.271,0.127,4.902-0.336,7.121c-0.572,2.689-3.74,2.602-5.773,2.658c1.281-0.652,4.762-1.277,5.135-2.85
	c0.322-1.35,0.09-2.982,0.09-4.379c0-2.402,0.592-5.938,0.342-10.898c-0.053-1,0.168-2.82-0.141-3.756
	c-0.33-0.992-1.201-1.184-1.982-1.836c-0.43-0.367-0.934-0.559-1.348-0.955c-0.289-0.264-0.688-0.422-0.844-0.752
	c-0.242-0.543,0.113-2.027,0.619-2.332"/>
<path fill="#004785" d="M147.984,386.961c0.246,1.457-0.141,2.076-1.338,2.801c-0.84,0.494-2.365,1.006-2.746,1.998
	c-0.389,1.023-0.197,3.297-0.152,4.365c0.092,1.986-0.07,4.018-0.07,6.016c0,2.076,0.115,3.879,0,5.945
	c-0.057,1.102-0.18,3.547,0.346,4.58c0.783,1.539,2.957,1.404,4.445,1.709c1.354,0.283,3.039,0.07,4.307-0.395
	c0.344-0.123,0.711-0.252,1.072-0.287c-1.6,0.178-3.547,0.531-5.178,0.139c-1.311-0.314-3.088-0.393-3.965-1.576
	c-0.639-0.869-0.16-3.537-0.209-4.613c-0.068-1.633-0.135-3.309,0.006-4.939c0.148-1.715,0-3.49,0-5.227
	c0-1.711-0.262-3.914,0.266-5.523c0.33-0.977,1.928-1.277,2.738-1.969c0.848-0.719,1.525-2.111,0.623-3.094"/>
<path fill="#004785" d="M145.711,394.887c0,2.488,0.057,4.947,0.057,7.463c0,1.133-0.033,2.273-0.117,3.4
	c-0.068,0.852-0.219,2.055,0.008,2.871c0.682-0.039,1.326,0.314,2.02,0.354c0.838,0.053,1.713,0.043,2.559,0
	c0.873-0.043,4.105,0.248,4.445-0.943c-1.363-0.098-2.732,0.26-4.098,0.26c-0.818,0-1.699,0.082-2.852,0
	c-0.527-0.039-1.377-0.121-1.549-0.617c-0.15-0.439,0-1.768,0-2.25c0-1.129,0.197-2.199,0.236-3.322
	c0.064-1.807,0.018-3.539-0.057-5.326c-0.037-0.785-0.105-1.271-0.477-1.889"/>
<path fill="#004785" d="M149.562,387.574c0.098,0.852-0.037,1.736-0.797,2.119c0.283,0,0.572,0,0.852-0.01
	c0.451-0.451,0.039-1.432,0.076-2.037"/>
<path fill="#004785" d="M709.105,372.227c-2.303-1-2.99-3.516-5.201-4.656c-1.857-0.949-4.549-1.807-6.568-2.217
	c-4.168-0.873-9.197-0.9-13.457-0.512c-4.127,0.383-7.879,1.357-12.004,2.148c-2.041,0.396-4.393,0.863-6.533,1.006
	c-2.572,0.178-4.893,0.504-7.42,0.871c-4.531,0.652-8.219,1.658-12.357,3.635c-3.551,1.697-6.438,4.49-9.662,6.611
	c-1.434,0.943-2.986,1.701-4.414,2.619c-1.002,0.645-1.598,1.428-2.777,1.605c-2.166,0.328-3.695-1.949-5.348-2.951
	c-2.312,1.229,0.418,6.43,1.709,7.365c2.311,1.662,3.16,2.607,2.82,5.707c-0.242,2.223-0.434,5.361-1.18,7.43
	c-0.352,0.953-1.77,2.07-1.598,2.779c0.148,0.65,1.678,1.586,2.225,1.838c3.008,1.383,7.609-0.109,10.16-1.945
	c0.703-0.51,1.354-1.311,2.148-1.623c0.779-0.301,1.541-0.113,2.359-0.498c1.721-0.818,2.99-1.885,3.848-3.568
	c-0.936,0.17-2.424,1.283-3.537,1.615c-2.156,0.631-2.805,0.334-3.287,0.623c-1.855,1.121-3.99,2.846-6.102,3.246
	c-0.836,0.16-2.734,0.645-3.439,0.312c-1.385-0.648-0.291-1.73-0.16-2.807c0.146-1.279-0.084-2.26,0.316-3.596
	c0.393-1.336,0.592-2.516,0.785-3.92c0.168-1.225,0.422-2.199-0.271-3.326c-0.574-0.936-2.109-1.279-2.084-2.459
	c0.035-1.244,2.006-1.754,2.82-2.381c1.867-1.441,3.33-3.4,5.322-4.783c2.473-1.723,5.586-2.502,8.215-4.104
	c3.434-2.094,7.094-4.318,11.172-4.854c3.285-0.426,6.566-0.371,9.906-0.652c4.627-0.371,8.588-2.225,13.088-2.973
	c4.947-0.818,9.074-1.643,14.115-0.859c4.061,0.629,7.846,0.311,11.377,2.721c1.432,0.971,3.172,2.848,5.014,2.707"/>
<path fill="#004785" d="M711.525,376.371c3.078,4.252,1.488,10.875,0.145,15.277c-0.58,1.914-1.551,3.346-2.574,5.053
	c-0.547,0.887-1.078,1.592-0.852,2.664c0.16,0.76,0.893,1.854,1.17,2.58c0.691,1.768-0.344,2.572-0.932,4.354
	c-0.521,1.562-0.586,3.219-0.586,4.922c0,1.566,0.008,3.146,0,4.713c-0.023,1.336-0.24,4.33-1.885,2.547
	c-0.932,0.811-1.088,1.502-2.434,1.916c-0.836,0.256-2.146,0.391-2.711-0.354c1.326-0.84,1.98-3.4,1.98-4.865
	c-0.006-1.197-0.053-2.404,0-3.602c0.043-0.93,0.799-2.836,0.113-3.545c-1.076,1.318-1.098,7.297-3.5,6.84
	c-0.197,1.543-2.973,2.174-4.123,1.508c-0.982-0.559-0.27-0.496,0.383-1.141c0.746-0.723,1.08-1.65,1.41-2.611
	c0.666-1.98,1.143-4.754,1.143-6.812c-0.002-2.289-1.965-4.391-1.619-6.795c1.949,1.232,2.701,5.838,2.906,7.979
	c0.27,2.785-0.949,5.332-2.098,7.74c2.311,1.201,4.088-6.521,5.293-7.379c2.062,0.822,1.58,4.326,1.496,6.059
	c-0.035,0.75-0.291,2.516,0.088,3.111c0.627,0.971,1.365,0.248,1.762-0.512c0.496-0.949,0.084-1.82,0.035-2.812
	c-0.086-1.346-0.318-2.66-0.125-3.982c0.273-1.893,1.652-3.781,1.387-5.768c-0.295-2.176-2-3.33-1.645-5.727
	c0.369-2.521,2.498-4.145,3.225-6.539c0.871-2.857,1.559-6.066,1.994-8.951c0.16-1.098,0.109-2.252,0.199-3.375
	c0.096-1.088,0.393-2.088,0.354-3.193"/>
<path fill="#004785" d="M708.828,372.148c-0.209-2.303,1.91-4.471,4.229-3.516c2.486,1.029,1.203,3.594-0.104,5.014
	c1.68,1.301,4.125,1.174,6.072,0.748c-1.014,1.637-3.83,2.373-5.623,2.338c-2.398-0.041-3.957-2.041-4.688-4.113"/>
<path fill="#004785" d="M697.336,398.777c-2.215,1.332-4.975,1.318-7.385,0.674c-2.385-0.631-4.758,0.73-7.305,0.617
	c-1.365-0.057-2.736-0.377-3.99-0.561c-1.254-0.178-2.504,0.131-3.748,0.092c-1.57-0.045-3.246-0.623-4.918-0.701
	c-1.609-0.07-3.133,0.057-4.691,0.234c-1.254,0.141-6.926,1.842-6.916-0.178c2.176,0.857,5.16-0.844,7.498-1.092
	c2.664-0.275,5.428-0.105,8.121-0.227c1.941-0.084,3.439,0.164,5.289,0.674c1.166,0.318,2.521,0.885,3.727,0.824
	c2.244-0.123,3.83-1.508,6.227-1.029c1.559,0.307,2.631,0.949,4.215,0.785c1.113-0.113,2.721-0.113,3.643-0.113"/>
<path fill="#004785" d="M645.48,398.545c1.551,1.041,1.43,3.754,1.643,5.402c0.369,2.908-0.365,5.715-1.289,8.557
	c-0.422,1.303-0.674,2.559-1.523,3.635c-0.41,0.535-1.801,1.488-1.531,2.238c0.238,0.666,1.857,0.551,2.381,0.377
	c1.021-0.352,1.027-0.822,1.998-0.762c0.324,0.01,0.312,0.527,0.908,0.262c0.414-0.188,0.445-0.701,0.584-1.057
	c0.387-0.973,0.623-2.115,0.939-3.16c0.658-2.199,1.471-4.475,2.842-6.338c1.594-2.164,3.564-4.217,4.924-6.541
	c0.656-1.111,1.227-2.465,1.584-3.719c0.318-1.092,0.988-4.912,0.039-5.822c0.064,0.068-0.127-0.309-0.092-0.219
	c-0.34,3.348-1.463,6.656-3.465,9.506c-1.623,2.309-3.494,4.279-4.896,6.73c-1.021,1.787-1.588,3.707-2.318,5.598
	c-0.254,0.664-0.502,1.645-1.168,2.119c-0.957,0.688-1.176,0.135-0.822-0.818c0.439-1.18,1.354-2.133,1.758-3.383
	c0.506-1.559,1.098-3.508,0.801-5.131c-0.447-2.438-0.791-6.434-2.82-7.943"/>
<path fill="#004785" d="M658.213,399.486c-0.117,0.957,0.295,2.068,0.033,3.047c-0.246,0.896-0.855,1.744-1.24,2.607
	c-0.791,1.771-1.484,3.246-1.18,5.244c0.289,1.836,0.475,3.252-1.283,4.145c-1.41,0.709-3.076,1.078-4.701,1.014
	c-0.082-0.191-0.139-0.48-0.117-0.672c1.566,0.254,2.229-0.229,3.379-1.195c1.322-1.102,1.432-1.967,1.531-3.752
	c0.1-1.828,0.375-3.418,1.432-4.922c0.998-1.441,1.793-3.043,1.615-4.934"/>
<path fill="#004785" d="M652.232,407.873c-0.24,0.613,0.273,1.697,0.178,2.398c-0.113,0.701-0.283,1.402-0.504,2.09
	c-0.305,0.979-1.205,2.793-2.395,2.967c0.205-1.109,1.205-2.006,1.602-3.115c0.488-1.361,0.057-2.869,1.055-4.049"/>
<path fill="#004785" d="M593.908,319.824c4.555,1.41,8.311,1.574,12.814,3.656c3.568,1.656,7.422,2.984,11.264,3.977
	c1.389,0.367,4.139,1.537,5.516,1.223c1.906-0.426,1.785-1.904,4.504-1.479c2.32,0.375,2.395,1.254,4.414-0.291
	c1.615-1.238,2.184-2.947,4.453-3.387c0.012,0.355,0.09,0.766,0.09,1.135c2.65-1.113,3.125,0.297,4.754,2.246
	c2.193,2.572,2.926,1.197,6.184,0.535c4.955-0.992,8.166,2.359,3.354,6.49c-9.367,8.029,8.795,15.451,3.734,24.404
	c-3.74,6.633-11.068-1.209-15.33-1.449c-2.746-0.152-4.07-1.311-6.711-2.141c-2.781-0.871-6.08-1.564-6.961-3.762
	c4.201,1.48,9.24,2.699,13.672,3.592c2.654,0.539,13.566,5.975,13.74,0.631c0.145-3.982-3.686-7.705-5.318-10.982
	c-1.154-2.297-3.326-4.408-1.949-6.471c0.912-1.363,3.734-3.621,2.605-5.35c-1.379-2.086-4.207,0.043-6.166-0.801
	c-2.15-0.936-2.217-4.34-5.502-3.238c-2.543,0.857-2.047,2.451-5.502,1.936c-2.945-0.426-2.785-1.283-5.496,0.332
	c-4.613,2.738-8.941,0.326-13.594-1.623c-4.51-1.881-10.072-3.078-14.529-4.988c-6.711-2.891-16.385-1.541-24.08-1.098
	c4.883-6.711,16.381-2.494,21.875-2.494"/>
<path fill="#004785" d="M628.686,354.285c-2.211,2.125-5.52,3.145-7.936,5.115c-2.58,2.076-4.352,4.814-6.328,7.398
	c-4.072,5.293-7.229,9.828-13.754,11.947c-1.33,6.66,0.51,15.051,3.684,20.932c0.887,1.645,5.287,5.275,4.422,6.697
	c-1.197,1.977-8.553,0.084-9.715-0.84c0.875-1.939,5.131-1.227,5.236-2.754c0.057-0.822-4.102-3.09-4.598-4.252
	c-0.922-2.125-0.57-5.109-1.195-7.34c-0.676-2.432-1.455-4.055-1.547-6.697c-0.039-1.18,0.102-2.395-0.221-3.443
	c-0.482-1.549-0.266-0.355,0.203-2.842c0.379-2.012,4.572-2.977,6.15-3.891c2.023-1.162,2.787-2.883,4.537-4.527
	c1.906-1.807,2.389-2.693,3.885-4.854c1.795-2.615,1.977-2.764,3.557-3.885c1.686-1.197,3.23-2.947,4.848-4.209
	c3.086-2.383,5.898-3.146,9.377-2.25"/>
<path fill="#004785" d="M595.891,379.912c-2.025,0.746-5.105-2.01-7.061-2.25c-1.941-0.238-2.359,2.955-2.881,4.488
	c-1.658,4.889-5.512,9.746-5.771,14.842c-0.082,1.42,0.391,2.629,0.465,3.961c0.07,1.275-0.809,2.908-0.113,4.088
	c0.389,0.652,1.572,0.93,2.068,1.561c0.547,0.715,0.318,1.146,0.627,1.838c0.395,0.883,1.762,1.271,1.684,2.279
	c-1.602,0.934-6.498,0.297-8.209-0.037c-0.727-0.148-2.32-0.506-1.902-1.525c0.367-0.914,4.633-1.104,5.668-1.061
	c0.182-1.127-1.502-1.764-1.963-2.721c-0.535-1.092-0.213-2.324-0.148-3.535c0.17-3.311,0.201-6.535,0.641-9.787
	c0.322-2.438,0.992-5.088,2.283-7.213c1.045-1.709,2.281-3.699,3.475-5.23c1.361-1.75,1.736-5.619,4.309-4.463
	c1.236,0.549,2.477,1.637,3.67,2.363c1.006,0.611,1.939,1.637,3.012,1.941"/>
<path fill="#004785" d="M524.131,380.709c4.762-4.234,9.07,0,11.398-3.055c0.871-1.145,1.625-1.396,3.135-0.758
	c1.232,0.523,2.033,1.297,3.416,1.523c1.436,0.23,2.486,0.043,3.791,0.693c1.211,0.596,1.998,0.992,3.344,1.248
	c2.398,0.467,4.508-0.113,6.871-0.57c2.66-0.518,5.055-0.691,7.627-1.67c2.41-0.914,4.592-1.707,7.158-2.291
	c1.969-0.447,5.902-1.287,6.385-3.682c-1.967,1.51-4.621,1.85-7.115,1.967c-3.344,0.158-5.994,1.193-9.057,2.252
	c-1.119,0.387-2.586,0.643-3.779,0.643c-1.232,0.006-2.467-0.574-3.668-0.34c-1.389,0.266-2.756,1.342-4.27,1.564
	c-1.678,0.264-2.482-0.771-3.805-1.523c-1.158-0.65-2.15-0.701-3.348-1.066c-1.227-0.367-2.264-1.359-3.508-1.693
	c-2.537-0.67-4.301,1.549-6.686,2.023c-2.059,0.414-5.17-0.482-7.438,0.199"/>
<path fill="#004785" d="M558.377,319.215c-4.924,0.039-9.459,0.316-12.361,0.447c-5.637,0.27-11.426,0.461-17.076,0.461
	c-3.943,0-7.367,0.48-11.285,0.305c-2.842-0.113-6.676-0.012-9.479,0.453c-1.562,0.262-3.162,1.162-4.707,1.666
	c-8.246,2.59-7.559,11.234-6.096,17.799c1.613,7.203-1.738,5.57,2.723,5.443c1.488-0.043,2.926-2.705,1.812-7.258
	c-1.271-5.176-2.189-8.271,1.826-12.496c2.852-3.008,7.832-4.215,11.773-3.621c5.803,0.869,11.451,1.449,17.232,0
	c6.686-1.682,16.1,3.275,22.311-0.307c0.988-0.561,1.84-1.553,2.867-1.984"/>
<path fill="#004785" d="M579.721,354.135c-4.465,3.572-3.604,8.682-3.805,13.84c-0.164,4.234,0.191,8.432-0.008,12.674
	c-0.148,3.072-0.461,5.854-0.297,8.902c0.104,2.145-0.404,4.291-0.801,6.344c-0.34,1.777-1.506,3.762-1.658,5.512
	c-0.092,1.152-0.074,1.502-0.453,2.598c-0.404,1.223-0.199,0.941,0.275,2.164c0.273,0.721,0.213,1.574,0.604,2.15
	c0.367,0.553,1.678,0.965,2.154,1.314c-0.252-0.801-0.83-2.256-0.896-3.174c-0.113-1.438,0.537-2.881,0.611-4.273
	c0.129-2.104,0.574-3.465,1.262-5.502c0.539-1.59,0.871-2.561,0.871-4.262c0-2.898-0.279-5.748-0.141-8.674
	c0.17-3.67,1.092-7.025,0.914-10.855c-0.17-3.594-2.02-7.348-1.191-10.984c0.494-2.189,1.291-5.689,2.41-7.465"/>
<path fill="#004785" d="M592.164,379.355c1.439,4.48,2.098,10.947,1.605,15.617c-0.33,3.172-0.104,3.762,1.986,6.42
	c1.715,2.176,3.303,4.121,5.918,3.896c-4.996-2.631-5.311-9.395-5.541-14.43c-0.164-3.633-0.277-10.062-3.656-12.121"/>
<path fill="#004785" d="M555.26,318.957c3.727,1.18,8.531-0.104,12.508,0.297c4.148,0.422,8.039,1.775,12.252,1.23
	c-4.535,3.146-7.428,2.887-13.174,1.891c-5.859-1.012-10.898,0.199-16.674,0.246c2.371-1.025,4.674-4.334,7.529-2.445"/>
<polyline fill="#004785" points="457.121,356.994 454.234,358.303 456.285,359.797 454.914,360.881 456.85,362.312 "/>
<path fill="#004785" d="M457.395,355.701c0,0,1.885-5.109,4.027-5.109c2.152,0,1.762,2.402,1.762,2.402s3.061-4.314,4.387-2.996
	c1.32,1.324-0.482,4.039-0.482,4.039s3.613-1.793,4.773-0.117c2.043,2.955-5.184,7.111-5.184,7.111s3.939-4.682,3.203-5.422
	c-0.742-0.744-3.586-1.006-3.586-1.006s0.771-0.992-0.434-2.189c-1.197-1.191-3.086,1.74-3.086,1.74s-0.57-1.588-1.363-1.588
	C458.961,352.566,457.395,355.701,457.395,355.701z"/>
<path fill="#004785" d="M465.002,361.271c0,0,9.859,10.381,11.596,10.381c1.723,0,3.09,0.361,3.09,0.361s-5.613,3.033-7.6,1.045
	c-1.988-1.986-2.541-4.85-3.959-6.268C466.713,365.375,465.002,361.271,465.002,361.271z"/>
<path fill="#004785" d="M477.547,371.553c0,0-4.826-11.625,3.795-16.793c8.623-5.174,16.957-3.572,26.166,5.428
	c9.211,8.996,9.402,22.982,9.402,22.982l-3.479-4.332l-2.623,11.547l-8.484-7.072c0,0,1.275-0.354,2.307,0.117
	c1.367,0.627,2.691,2.062,3.854,1.359c2.041-1.238,3.611-7.992,3.611-7.992s2.904,3.225,3.26,2.721
	c0.35-0.502-0.957-14.498-12.078-20.535c-11.119-6.037-14.027-5.867-20.803-3.051C475.697,358.742,477.547,371.553,477.547,371.553z
	"/>
<path fill="#004785" d="M457.217,364.18c0,0-4.807,4.986-2.273,7.516c2.521,2.521,5.01-0.338,5.01-0.338s-0.904,0.896-2.668-0.871
	C455.527,368.727,457.217,364.18,457.217,364.18z"/>
<path fill="#004785" d="M460.951,372.566c0,0-4.336,11.951,2.076,18.359c6.41,6.414,13.818,8.547,13.818,8.547
	s-10.777-6.811-12.822-11.119C461.979,384.039,460.951,372.566,460.951,372.566z"/>
<path fill="#004785" d="M469.398,397.764c0,0,0.85,2.58,1.799,3.752c0.939,1.188,3.58,2.998,2.092,5.9
	c-1.496,2.912-2.014,4.061-2.98,5.08c-0.975,1.014-6.26,3.805-6.26,3.805l9.885,0.186l-1.797-2.746c0,0,1.271-3.27,1.605-3.752
	c0.344-0.49,1.098-1.311,1.719-1.818c0.611-0.506,0.598-2.596,0.598-2.596l1.092-1.674c0,0-2.146-0.715-3.217-2.139
	C472.855,400.322,469.398,397.764,469.398,397.764z"/>
<path fill="#004785" d="M480.375,401.936c0,0,1.969,3.383,2.707,3.793c0.736,0.412,0.955,1.496,0.955,1.496l-0.801,5.988
	l-5.781,2.459h7.873l-0.617-2.594c0,0,0.596-1.844,1.035-3.271c0.432-1.424,0.574-3.809,0.574-3.809l1.127-2.559
	c0,0-0.629,1.893-3.316,0.107c-2.686-1.785-4.295-2.686-4.473-3.225C479.479,399.787,480.375,401.936,480.375,401.936z"/>
<path fill="#004785" d="M487.691,403.773c0,0,5.25-2.232,7.125-3.961c1.459-1.332,0.613-1.68,2.916-2.672
	c1.49-0.635,3.082,0.965,3.482-1.828c0.4-2.777,1.594-6.164,1.793-8.357c0.197-2.193-0.4-4.186-0.992-1.992
	c-0.604,2.188-0.936,6.17-3.129,7.572c-2.189,1.393-4.379,3.178-4.58,4.178c-0.199,0.992-1.949,2.547-3.938,2.936
	c-1.988,0.404-1.498,2.439-1.498,2.439L487.691,403.773z"/>
<path fill="#004785" d="M205.574,344.938c0,0-1.078,0.426-2.236,0.426c-1.162,0-3.395,0.539-4.014,0.715
	c-0.629,0.178-1.969,0.982-2.242,1.162c-0.262,0.174-1.152,0.709-1.152,0.709s-0.359,0.447-0.27,0.801
	c0.088,0.361,0.359,0.27,0.621,0.447c0.273,0.176,1.166,0.898,1.611,1.162c0.443,0.27,1.514,0.807,1.877,0.807
	c0.355,0,1.783-0.088,2.141,0.086c0.354,0.184,1.939,0.248,2.498,0.184c0.559-0.066,1.426-1.406,1.426-1.406s-2.699,0.84-3.41,0.662
	c-0.717-0.17-1.764-0.332-2.213-0.332c-0.441,0-0.73-0.086-1.541-0.539c-0.801-0.447-1.805-0.666-1.805-0.932
	c0-0.27-0.045-0.514,0.404-0.869c0.445-0.354,1.602-0.807,2.137-1.076c0.537-0.258,1.432-0.801,1.879-0.801
	c0.443,0,0.867-0.156,1.406-0.064c0.533,0.092,1.359-0.27,1.629-0.357C204.584,345.633,205.574,344.938,205.574,344.938z"/>
<path fill="#004785" d="M222.898,341.863c0.477,0.605,0.943-0.135,1.338-0.338c0.412-0.201,1.814,0,2.814,0.338
	c0.076,0.021,0.158,0.041,0.244,0.07c1.043,0.34,2.695,0.844,2.635,1.332c-0.062,0.539-0.465,2.006-1.002,2.678
	c-0.535,0.67-0.469,0.936-1.137,1.332c-0.674,0.412-1.209,0.809-1.471,0.879c-0.27,0.064-1.006,0.064-1.207-0.135
	c-0.199-0.205-0.465-0.605-0.801-0.744c-0.34-0.133,0.936,0.064,1.338,0.207c0.4,0.131,1.205-0.207,1.602-0.539
	c0.402-0.33,1.01-1,1.207-1.268c0.199-0.27,0.533-1.27,0.533-1.539s0.473-0.666-0.064-0.871c-0.535-0.201-2.072-0.797-2.346-0.736
	c-0.262,0.07-0.668-0.27-1.066-0.199c-0.402,0.061-1.049-0.461-1.34-0.07c-0.398,0.539-1.277-0.531-1.605-0.596
	C222.234,341.594,222.898,341.863,222.898,341.863z"/>
<path fill="#004785" d="M206.436,345.137c-0.756-3.729,3.814-3.611,6.158-5.152c2.457-1.607,6.469,0.395,9.096,1.775
	c-1.635,0.117-2.982-0.279-4.436-0.74c-1.682-0.525-2.293,0.105-3.885,0.605c-1.482,0.471-3.359,0.104-4.721,0.904
	c-1.002,0.588-1.838,2.363-2.18,3.4c-0.039-0.297-0.049-0.609-0.033-0.922"/>
<path fill="#004785" d="M206.838,351.295c-0.496,0.924-0.604,2.377-0.926,3.43c-0.301,1.027-1.008,1.842-1.008,2.934
	c-0.006,0.537,0.139,1.055,0.131,1.604c-0.018,0.621-0.227,1.004,0,1.619c0.248,0.678,0.619,0.83,1.188,1.24
	c0.387,0.291,0.469,0.779,0.883,1.105c0.219,0.17,0.527,0.248,0.787,0.318c-0.402-0.098-0.543-0.729-0.734-1.068
	c-0.236-0.398-0.566-0.717-0.85-1.082c-0.734-0.953-0.363-2.326-0.479-3.475c-0.119-1.162,0.916-2.133,1.275-3.207
	c0.375-1.123,0.365-1.988-0.066-3.074c-0.053-0.133-0.1-0.281-0.135-0.408"/>
<path fill="#004785" d="M228.727,388.674c-0.02,1.721,3.43,2.133,4.646,2.229c1.453,0.102,3.662-0.152,4.746,1.158
	c2.316,2.777,2.131,7.646,1.783,11.111c-0.168,1.65,0.195,3.6-0.287,5.201c-0.359,1.225-1.408,2.174-1.984,3.301
	c-0.414,0.795-1.391,3.197-0.984,4.057c0.369,0.777,2.621,0.777,3.477,0.783c-0.621-0.1-1.961-0.113-2.318-0.709
	c-0.336-0.559,1.359-1.672,1.49-2.27c0.35-1.602,0.656-1.861,1.215-3.342c0.643-1.686,0.91-4.238,0.91-6.066
	c-0.006-1.693,0.301-3.762,0.303-5.463c0-2.961-0.736-7.26-3.641-8.496c-1.535-0.652-3.271-1.389-4.854-1.211
	c-0.842,0.084-1.85,1.289-2.604,0.941c-0.633-0.287-1.119-0.783-1.809-0.871"/>
<path fill="#004785" d="M241.914,394.49c0.951,1.893,1.34,3.643,1.34,5.74c0,2.551,0.344,5.059,0.354,7.631
	c0.006,2.062-0.432,3.59-1.586,5.287c-0.777,1.148-1.379,2.16-1.439,3.479c-0.076,1.553-1.693,3.246,0.707,3.389
	c0.992,0.062,3.512-0.404,3.467-2.232c-1.143,1.084-1.57,2.004-2.428,0.609c-0.451-0.752,0.018-0.777,0.303-1.518
	c0.441-1.141,0.891-1.977,1.521-3.033c1.018-1.729,1.615-3.74,1.514-5.768c-0.113-2.311-0.5-5.254-0.607-7.588
	c-0.105-2.363-1.004-4.408-2.969-5.814"/>
<path fill="#004785" d="M250.012,396.605c-0.168,2.189,0.385,4.492,0.539,6.672c0.076,1.172,0.057,2.346,0.236,3.5
	c0.139,0.879,0.586,1.596,0.826,2.438c0.389,1.34-0.377,1.617-1.311,2.402c-0.326,0.283-0.822,0.609-0.988,0.982
	c-0.244,0.592,0.277,1.207-0.109,1.729c-0.109-0.379-0.623-1.236-0.627-1.562c-0.016-0.488,0.553-0.943,0.832-1.318
	c0.93-1.285,0.195-2.139-0.1-3.678c-0.273-1.402-0.377-3.684-0.303-5.158c0.107-2.258,0.062-4.061,1.004-5.916"/>
<path fill="#004785" d="M232.205,343.332c1.262-0.076,2.209-1.334,3.477-1.604c1.48-0.312,2.639,0.562,4.131,0.537
	c0.609-0.01,1.219-0.402,1.908-0.275c0.871,0.162,1.693,0.998,2.633,1.219c1.469,0.336,2.529-0.145,3.891-0.418
	c1.479-0.291,3.125-0.348,4.576-0.127c2.252,0.34,3.584-0.801,5.76-1.439c1.619-0.482,2.855-0.35,4.42-0.135
	c2.951,0.396,4.801,0.758,7.658-0.066c3.262-0.947,5.365-1.676,8.676-1.045c1.947,0.367,8.625-0.609,10.57-0.129
	c-0.949,0.709-5.717,1.006-6.693,1.879c-1.15,1.033-2.102,2.025-3.51,1.637c-1.225-0.34-2.354-0.914-3.717-0.701
	c-1.307,0.205-2.529,1.141-3.754,1.637c-1.193,0.48-2.824,1.416-4.119,1.441c-1.396,0.031-2.982-0.932-4.32-1.307
	c-3.047-0.857-5.029,0.432-7.619,1.977c-1.98,1.176-4.381,1.594-6.562,0.768c-1.17-0.441-2.252-1.062-3.486-1.299
	c-1.416-0.27-2.359,0.135-3.707,0.396c-1.373,0.27-1.604-0.148-2.881-0.773c-1.121-0.553-2.318-0.516-3.559-0.262
	c-0.689,0.146-2.029-0.693-2.697-0.836c-0.973-0.205-1.094,0.17-1.742-0.27"/>
<path fill="#004785" d="M213.062,363.68c0.076,2.262,1.285,4.273,2.248,6.293c0.668,1.396,2.191,1.301,2.576,2.672
	c0.393,1.424-0.246,2.395,0.76,3.613c0.807,0.992,2.033,1.291,2.746,2.314c0.748,1.066,1.053,2.406,1.477,3.578
	c0.365,1.041,0.723,1.697,1.598,2.377c0.752,0.588,2.584,1.039,2.547,1.885c-0.158,3.646,4.639,3.756,2.65,3.238
	c0.402-0.666-2.061-4.422-2.27-5.264c-0.365-1.475-0.578-2.438-1.852-3.338c-0.906-0.639-1.873-0.871-2.607-1.842
	c-0.875-1.174-0.627-2.305-0.758-3.734c-0.383-3.947-2.729-3.986-5.207-6.209c-1.377-1.225-3.969-3.309-3.643-5.449"/>
<path fill="#004785" d="M223.24,348.154c-1.631,0.078-2.154,3.693-2.551,4.961c-0.5,1.588-1.322,3.211-2.107,4.715
	c-0.814,1.557-1.98,2.191-3.539,2.629c-1.916,0.543-3.086,2.066-4.793,3.102c-0.086-0.086-1.34,0.92-2.406,0.119
	c-1.068-0.801,3.684-2.84,5.754-3.752c1.975-0.859,2.09-1.654,3.484-3.475c1.434-1.879,0.572-3.682,2.406-5.084
	c1.514-1.162,1.564-3.215,3.615-3.215"/>
<path fill="#004785" d="M246.133,419.768c1.307-1.521,3.637-3.877,2.787-5.996c-0.672,0.014-1.611,2.35-2.02,3.02
	c-0.607,0.967-1.309,2.051-0.371,2.977"/>
<path fill="#004785" d="M287.982,340.127c8.732-5.553,18.49,3.465,21.199,11.84c-5.725-6.59-17.211-12.598-26.836-10.764
	c1.67-0.963,3.113-0.857,4.947-1.076"/>
<path fill="#004785" d="M249.895,397.609c4.65-3.828,7.285-1.631,11.754-3.551c4.475-1.936,4.008-4.357,8.482-4.918
	c3.209-0.389,13.633,5.301,10.232-1.914c-4.77,0.135-8.803-3.844-13.156,0c-5.523,4.861-13.504,0.342-18.006,10.035
	c0.521,0.906-0.719,1.162,0,1.74"/>
<path fill="#004785" d="M375.855,412.965c-0.199,1.451,0.049,4,0.049,4l10.459,0.576l7.49,1.561c0,0,1.379-1.088,1.744-3.459
	c0.363-2.381-1.34-1.34-1.34-1.34l-16.227-2.521C378.031,411.781,376.057,411.504,375.855,412.965L375.855,412.965z"/>
<path fill="#004785" d="M404.412,365.072c-1.215,3.062-0.43,5,1.99,7.045c1.758,1.49,3.99,3.086,4.875,5.281
	c0.643,1.596,1.018,3.416,1.518,5.061c0.545,1.768,1.01,3.496,1.828,5.15c0.641,1.287,1.609,2.453,1.836,3.926
	c0.244,1.578-0.496,2.74,0.779,4.139c0.842,0.922,1.969,1.566,2.787,2.629c0.514,0.68,0.883,1.439,1.67,1.793
	c0.148-2.912-1.588-5.99-2.375-8.84c-0.932-3.373-3.273-5.65-4.562-8.73c-1.205-2.852-0.545-6.125-2.225-8.863
	c-1.936-3.172-5.199-3.881-5.961-8.051c-0.764-4.117-0.807-9.414-2.609-13.205c-1.387-2.922-3.297-5.797-4.918-8.58
	c-0.816-1.428-1.248-2.934-2.018-4.387c0.951,2.75,1.814,5.594,2.803,8.361c0.77,2.154,2.084,4.025,2.793,6.158
	c1.002,3.064,2.898,9.24,1.52,12.188"/>
<path fill="#004785" d="M394.559,390.965l-2.795,23.338h-3.742c2.146-41.445,4.574-47.498,10.432-75.316l4.422-2.715
	c-5.975,38.01-8.725,35.75-8.725,44.896"/>
<path fill="#004785" d="M345.406,387.191c0,0,3.873-8.248,22.719-5.646c0,0,5.568,1.303,4.719,4.348
	c-0.857,3.029-3.438,4.318-3.865,5.625c-0.422,1.301-0.854,3.033-0.854,3.033s-0.857,2.604-1.283,3.9
	c-0.432,1.305-2.998,0-3.43,2.176c-0.426,2.168,2.143,6.066-2.568,6.498c-4.727,0.439-16.295,0.439-16.295,0.439l0.857-1.271
	c0,0,8.148-1.732,11.154-1.732c2.992,0,2.561-2.201,3.426-3.934c0.857-1.736,2.568-0.871,2.568-3.039
	c0-2.162-1.297-2.162-0.432-3.465c0.863-1.305,4.287-2.162,3.004-3.904c-1.283-1.73-2.572-0.434-1.283-1.73
	c1.283-1.297,5.562-2.168,5.562-2.168s4.287-3.033-2.139-3.473c-6.424-0.439-15.867,2.172-19.297,4.344H345.406L345.406,387.191z"/>
<path fill="#004785" d="M351.604,356.08l10.469,5.732l0.426,3.906l7.285,6.5l-3.002,6.502l3.002,0.432l5.145-6.934l-9.43-7.801
	l0.855-3.473l-14.145-9.531l-4.295,3.465l-8.566-3.896l-7.287,8.234l2.143,2.16l5.318-6.564c0,0,5.793,3.312,7.082,5.48"/>
<path fill="#004785" d="M345.168,389.977c0,0-6.861,9.113-5.998,22.119c0,0-0.176-0.824-4.463-0.387
	c-2.24,0.229-9.334,0.191-17.248,1.021l-1.119,2.693c5.898-0.717,19.588,0.623,23.875,0c5.16-0.748,3.484,0,3.059-4.33
	C342.842,406.754,341.311,395.621,345.168,389.977L345.168,389.977z"/>
<path fill="#004785" d="M324.326,382.738c0.92-22.09,3.748-18.941,8.209-38.902c-9.854,6.066-11.137,33.811-13.291,39.877
	c-0.488,1.424-1.211,2.543-2.012,3.457v2.764c12.188-1.838,25.602-6.25,25.602-6.25l1.715-1.275
	C337.682,381.984,324.326,382.738,324.326,382.738L324.326,382.738z"/>
<path fill="#004785" d="M364.992,334.312c0,0,21.836,60.916,16.029,78.371c-3.508,10.523-2.859-20.256-2.859-20.256l-5.975-26.799
	L364.992,334.312L364.992,334.312z"/>
<path fill="#004785" d="M364.121,316.994c-0.492,6.115-13.578,9.705-18.305,11.365c-8.498,2.988-10.83,5.105-16.305,11.307
	c8.104-10.254,30.975-5.854,34.609-20.434"/>
<path fill="#004785" d="M388.496,312.508c0.086,10.732,20.096,8.99,26.609,11.229c11.404,3.918,19.033,22.016,29.668,85.238
	c-0.555-2.111-2.686,4.277-3.797-2.65c-4.387-27.373-15.6-71.672-21.221-75.471c-11.227-7.564-29.633-4.07-32.736-19.84"/>
<path fill="#004785" d="M359.926,290.396c2.998-0.754,7.221-1.898,8.439,1.318c1.066,2.842-2.041,8.318,0,10.189
	c1.354-1.598,3.607-0.273,4.557-2.193c-1.332,0.082-2.998,0.182-4.174,0.818c-0.127-2.773,2.33-8.375,0.262-10.791
	c-2.615-3.033-7.156,0.262-10.051,0.658"/>
<path fill="#004785" d="M349.771,276.955c-7.717,12.697,1.006,23.369,7.029,32.432c1.602,2.414,3.225,4.805,6.102,6.371
	c2.111,1.154,4.061,2.578,6.508,2.834c6.012,0.617,11.107-2.516,14.75-6.943c-4.961,4.648-11.635,3.318-17.545,1.863
	c-5.096-1.254-5.461-5.826-8.992-9.771c-5.082-5.684-6.951-11.912-6.428-19.736c0.432-6.652,3.633-7.844,9.205-9.729
	c-1.219-1.24-7.061-1.416-8.779,1.006"/>
<path fill="#004785" d="M380.178,278.633c7.178,3.084,8.754,18.219,7.277,24.76c1.318-1.053,2.926-5.123,2.92-6.738
	c-0.008-1.992-0.373-7.781-0.836-9.701c-1.666-6.74-10.375-9.596-8.117-7.691"/>
</svg>
